# xmcd
#
# Track frame offsets:
#	182
#	14479
#	28333
#	41600
#	54274
#	64546
#	77128
#	89823
#	102906
#	113014
#	125991
#	136465
#	148436
#	159565
#	173924
#	188770
#	202616
#	217181
#
# Disc length: 3083
#
# Revision: 3
# Processed by: cddbd v1.5.1PL0 Copyright (c) Steve Scherf et al.
# Submitted via: audiograbber 1.80
# Normalized: r2:DSETVAR2
#
DISCID=0d0c0912
DTITLE=Various Artist - Chicago Blues 1940-1947 CD2
DYEAR=1900
DGENRE=
TTITLE0=Big Bill Bronzy - Saturday evening blues
TTITLE1=Walter Davis - Just one more time
TTITLE2=Memphis Slim - Lend me your love
TTITLE3=Floyd Jones - Stockyard blues
TTITLE4=Floyd Jones - Keep what you got
TTITLE5=Big Joe Williams - Baby please don't go
TTITLE6=Willie Dixon and Big Three Trio - No more sweet potatoes
TTITLE7=Eddie Boyd - Blue monday blues
TTITLE8=Little Walter - It's the blues baby
TTITLE9=Tampa Red - Grieving blues
TTITLE10=Snooky Pryor - Boogie
TTITLE11=Othum Brown - Ora Nelle blues
TTITLE12=Litle Walter - I just keep lovin' her
TTITLE13=Roosevelt Sykes - Walkin' and drinkin'
TTITLE14=Washboard Sam - Ramblin' with that woman
TTITLE15=John Lee - Sonny Boy- Williamson
TTITLE16=Sunnyland Slim - Farewell little girl
TTITLE17=Memphis Minnie - Daybreak blues
EXTD=Fremeaux et Associés\n1998
EXTT0=28 jan 1947\nBig Bill Broonzy - voc.\nMemphis Slim - piano\nRansom Knowling - bass\nTyrell Dixon - drums\n
EXTT1=5 fev 1947\nWalter Davis - voc, g.\nLeonard Caston - g.\nCharles Saunders - drums\n\n
EXTT2=fev 1947\nMemphis Slim - voc, piano\nErnest Cotton - sax tenor\nAlex Atkins - sax alto\nWillie Dixon - Drums
EXTT3=Juin 1947\nFloyd Jones - voc, g.\nSnooky Pryor - harmonica\nMoody Jones - g.
EXTT4=Juin 1947\nFloyd Jones - voc, g.\nSnooky Pryor - harmonica\nMoody Jones - g.
EXTT5=22 juillet 1947\nBig Joe Williams - voc, g.\nJohn Lee -Sonny Boy- Williamson - Harmonica\nRansom Knowling - bass\nJudge Riley - drums
EXTT6=3 sept 1947\nWillie Dixon&Big Three Trio - \nWillie Dixon - voc\nLeonard Caston - piano\nOllie Crawford - guitare\nAlphonse Walker -  drums
EXTT7=16 sept 1947\nEddie Boyd - voc, piano.\nOett -sax- Mallard - Sax alto\nE. L. Ligett - bass\nBooker T. Washington - drums\nBill Casimir - Sax tenor
EXTT8=dec 1947\nLittle Walter - voc, harmonica.\nMuddy Waters - g.\nFloyd Jones - g\nSunny Land Slim - piano\nLeroy Foster - drums
EXTT9=23 sept 1947\nTampa Red - voc, g.\nBlind Jones Davis - piano\nWalter Williams - trompette\nJohn Gardner - Sax tenor\nRansom Knowling - bass\nJudge Riley - drums\n
EXTT10=dec 1947\nSnooky Pryor voc, harmonica.\nMoody Jones - guitar\n
EXTT11=Oct. 1947\nOthum Brown - voc, guitar.\nLittle Walter Harmonica\nJimmy Rogers - guitar\n
EXTT12=Oct. 1947\nLittle Walter - voc, Harmonica.\nOthum Brown - guitar.\nJimmy Rogers - guitar\n
EXTT13=15 oct 1947\nRoosevelt Sykes - voc, piano.\nSam Casimir - guitar\nBill Casimir Sax tenor\nOett -Sax- Mallard - Sax alto\nJohnny Morton - Trompette\nBig Crawford - Bass\nW.B.Nelson - drums
EXTT14=16 oct 1947\nWashboard Sam - Voc, Washboard\nBig Bill Broonzy - guitar\nOett -Sax- Mallard - Sax alto\nBig Crawford - bass\n\n
EXTT15=12 nov 1947\nJohn Lee "Sonny Boy" Williamson - voc, harmonica\nBig Bill Broonzy - guitar\nBlind Jones Davis - piano\nRansom Knowling - bass\nJudge Riley - Drums
EXTT16=10 dec 1947\nSunnyland Slim - voc\nBlind Jones Davis - piano\nBig Bill Broonzy - guitar\nRansom Knowling - bass\nJudge Riley - drums
EXTT17=27 dec 1947\nMemphis Minnie - voc, guitar\nErnest Lawlars - guitar\nBlind John Davis - piano\nRansom Knowling - bass\nJudge Riley - drums
PLAYORDER=
